<svg id="Layer_1" data-name="Layer 1" xmlns="http://www.w3.org/2000/svg" viewBox="0 0 1028 555.4"><defs><style>.cls-1{fill:#fff;}</style></defs><path class="cls-1" d="M307.17,348.93c-13.61,13.6-40.22,21.7-71.21,21.7s-57.63-8.1-71.2-21.7S143,308.71,143,277.72s8.15-57.59,21.75-71.2S205,184.77,236,184.77s57.6,8.14,71.21,21.75,21.7,40.22,21.7,71.2S320.73,335.32,307.17,348.93Zm53.16-71.23A124.39,124.39,0,1,0,235.94,402.09,124.39,124.39,0,0,0,360.33,277.7Z"/><path class="cls-1" d="M259.94,260.31v34a7.05,7.05,0,0,1-7,7.08H218.84a7,7,0,0,1-7.05-7.08v-34a7.06,7.06,0,0,1,7.05-7.09H252.9A7.06,7.06,0,0,1,259.94,260.31Z"/><path class="cls-1" d="M294.17,219c-9.64-9.64-32.53-15.88-58.32-15.88h0c-25.79,0-48.68,6.24-58.32,15.88s-15.87,32.56-15.87,58.36,6.19,48.72,15.87,58.37,32.53,15.87,58.32,15.87h0c25.79,0,48.68-6.24,58.32-15.87s15.88-32.57,15.88-58.37S303.86,228.59,294.17,219Zm-22.52,93.92c-2,2-8.15,8.14-36,8.14s-34-6.11-36-8.14-8.14-8.14-8.14-36,6.11-34,8.14-36,8.1-8.1,36-8.1,33.94,6.07,36,8.1,8.09,8.14,8.09,36S273.64,310.86,271.65,312.88Z"/><path class="cls-1" d="M507.82,239.47q-15.49,0-25,10.17l-3.39-8.32H457.88v76.3H485V276.77c0-9.09,5.7-15.11,14.18-15.11a11.79,11.79,0,0,1,12,12.18v43.78h27.13V269.37c0-8.78-2.77-15.87-8.48-21.42C524.16,242.24,516.91,239.47,507.82,239.47Z"/><rect class="cls-1" x="416.11" y="206.06" width="27.13" height="27.13"/><rect class="cls-1" x="416.11" y="241.32" width="27.13" height="76.3"/><path class="cls-1" d="M906.44,250.71c-6.64-7.54-15.11-11.22-25.43-11.22-9.28,0-16.81,2.91-22.68,8.91l-3.41-7.09H833.38V349.69h27.09V312.23A32.12,32.12,0,0,0,881,319.48c10.32,0,18.79-3.73,25.43-11.1,6.6-7.57,10-17.13,10-28.84C916.45,267.68,913,258.12,906.44,250.71Zm-32.68,47.46c-8.18,0-13.73-6.15-13.73-14.62v-8c0-8.62,5.55-14.78,13.73-14.78,8.79,0,15.1,7.7,15.1,18.79C888.86,290.48,882.55,298.17,873.76,298.17Z"/><path class="cls-1" d="M805.16,205.71c-8.79,0-15.42,6.47-15.42,15.57a15.08,15.08,0,0,0,15.42,15.41c9.24,0,15.56-6.63,15.56-15.41C820.72,212.18,814.4,205.71,805.16,205.71Z"/><rect class="cls-1" x="791.59" y="241.32" width="27.13" height="76.3"/><path class="cls-1" d="M678.46,250.71c-8-7.54-18.51-11.22-31.27-11.22s-23.13,3.68-31.31,11.22-12.19,17.13-12.19,28.83,4,21.27,12.19,28.84c8.18,7.37,18.51,11.1,31.31,11.1s23.25-3.73,31.27-11.1c8.18-7.57,12.19-17.13,12.19-28.84C690.65,267.68,686.64,258.12,678.46,250.71ZM647.19,298.5c-9.28,0-15.76-7.86-15.76-19,0-11.26,6.48-19.11,15.76-19.11s15.88,7.85,15.88,19.11C663.07,290.64,656.42,298.5,647.19,298.5Z"/><path class="cls-1" d="M592.59,228.83a53.05,53.05,0,0,1,8.95.93l3.39-20a72.65,72.65,0,0,0-19-2.47q-12.72,0-20.81,7.4c-5.24,4.93-7.86,11.41-7.86,19.58v7.09H544.5v20.5h12.8v55.8h27.13v-55.8h15.72v-20.5H584.43V237C584.43,231.91,587.66,228.83,592.59,228.83Z"/><path class="cls-1" d="M771.69,250.71c-6.6-7.54-15.11-11.22-25.43-11.22a31.44,31.44,0,0,0-20.5,7.21V209.11H698.63V317.62h21.58l3.41-7.09c5.83,6,13.4,9,22.64,9,10.32,0,18.83-3.73,25.43-11.1,6.64-7.57,10-17.13,10-28.84C781.74,267.68,778.33,258.12,771.69,250.71Zm-32.64,47.46c-8.18,0-13.73-6.15-13.73-14.62v-8c0-8.62,5.55-14.78,13.73-14.78,8.75,0,15.06,7.7,15.06,18.79C754.11,290.48,747.8,298.17,739.05,298.17Z"/></svg>