<?xml version="1.0" encoding="utf-8"?>
<!-- Generator: Adobe Illustrator 26.2.1, SVG Export Plug-In . SVG Version: 6.00 Build 0)  -->
<svg version="1.1" id="a" xmlns="http://www.w3.org/2000/svg" xmlns:xlink="http://www.w3.org/1999/xlink" x="0px" y="0px"
	 viewBox="0 0 512 184.9" style="enable-background:new 0 0 512 184.9;" xml:space="preserve">
<style type="text/css">
	.st0{fill:#FBFBFB;}
</style>
<path class="st0" d="M194.4,182.8c1.5-2.5,2.9-5,4.5-7.5c4.6-7.2,9.1-14.5,14-21.5c10-14,21.8-26.6,35.2-37.5
	c8.4-6.9,17.4-13,26.5-19.1c6.1-4.1,12.7-7.4,19.1-11c0.5-0.3,1.2-0.6,1.6-0.8c2.8-1.5,3.1-2.1,2.6-4.3c-0.9-4.5-1.8-9-3-13.5
	c-1.7-6.5-3.7-12.9-5.4-19.4c-1.1-3.9,0.9-8.2,4.7-10.5c3.3-2,8-1.6,11,0.6c2.7,2,3.7,5,4.5,8c2.1,7.3,4.3,14.5,5.9,21.9
	c1.8,8.5,3.1,17.2,4.5,25.8c2.6,16.4,2.9,32.8,2.3,49.3c-0.4,10.9-1.9,21.8-2.9,32.6c-0.1,1.1-0.4,2.3-0.5,3.4c-0.1,1-0.3,2-0.4,3
	c0,0.3,0.2,0.6,0.4,0.7l0,0c0.2,0.1,0.5,0.1,0.7-0.1c0.7-0.6,1.7-2.1,2.5-3.4c3.7-6.6,7.1-14.6,10.5-22.2c2.3-5.1,4.1-10.4,5.9-15.7
	c1.7-4.9,3.2-9.8,4.5-14.7c1.9-7.2,3.7-14.3,5.1-21.6c2.3-11.9,3.9-23.9,4-36c0-2.1,1.2-2.7,2.9-2.9c6.3-1.3,13.3-2.5,19.9-2.9
	c13.6-1,27.2-1,40.7,0.5c7.6,0.8,15.2,1.7,22.7,3.3c8.5,1.8,16.9,4.2,25.3,6.7c6,1.8,12,4,17.9,6.2c3.4,1.3,6.6,3.1,9.9,4.7
	c4.9,2.4,9.8,4.9,14.8,7.3c0.4,0.2,0.9,0.1,1.9,0.2c-0.8-1.2-1.2-2.1-1.9-2.7c-11.2-10.3-22.4-20.6-35.1-29
	c-10.2-6.9-20.6-13.5-31.2-19.7c-7.7-4.5-16-8.1-24.1-11.9c-6.8-3.1-13.7-6-20.7-8.7c-5.7-2.2-11.5-4.1-17.3-5.8
	c-6.1-1.8-12.3-3.4-18.5-4.9c-13.5-3.3-27.2-5.3-41-7c-16.4-1.9-32.8-2-49.1-1.3c-10.8,0.4-21.6,1.7-32.3,3.3
	c-10.2,1.5-20.3,3.5-30.3,6c-10,2.5-19.7,5.9-29.6,8.9c-2.8,0.9-2.1,1.9-1.5,3.5c1.6,4.4,3.3,8.8,4.8,13.2c1.7,4.9,3.4,9.7,4.8,14.6
	c1.9,6.7,3.7,13.4,5.2,20.1c1.1,4.7,1.7,9.5,2.5,14.3c2.9,16.6,3.9,33.3,3.9,50.1c0,13.2-1.5,26.4-3.2,39.5
	c-0.2,1.8-0.5,3.5-0.6,5.3c-0.1,0.8-0.5,3,0.4,3.1C193.8,183.4,194.1,183.2,194.4,182.8L194.4,182.8z"/>
<path class="st0" d="M6.5,182.5c2.1-0.5,4.3-0.9,6.5-1.5c8.9-2.4,17.8-4.6,26.6-7.2c6.2-1.8,12.3-3.9,18.3-6.3
	c7.6-3.1,15-6.6,22.3-10.2c6.4-3.2,12.8-6.4,18.9-10.2c8-4.9,15.8-10.2,23.5-15.6c11.8-8.3,22.6-17.7,32.8-27.8
	c6-6,11.5-12.5,17.2-18.8c1.8-2,3.5-4,4.9-6.2c1.2-1.6,1-2.8,0.7-4.1c-1.7-7.2-3.5-14.4-5.6-21.5c-1.9-6.3-4.4-12.5-6.7-18.7
	c-0.1-0.3-0.2-0.6-0.3-0.9c-2-5.9-2.3-5.8-7.6-3c-9.9,5.1-20.1,10-29.6,15.7c-10,6-19.6,12.7-29,19.5C84.3,76.7,70.6,89.3,58,103
	c-7.2,7.8-13.8,16.1-20.4,24.3c-8.7,10.8-16.1,22.6-23.1,34.5c-3,5.1-5.6,10.4-8.4,15.6c-0.4,0.7-1.2,2-1.5,2.8
	C3.8,181.9,4.2,183,6.5,182.5L6.5,182.5z"/>
<path class="st0" d="M431.2,162.9c-1.4-8.9-2.8-17.7-4.8-26.5c-1.7-7.7-4.1-15.2-6.5-22.7c-2.4-7.4-5.4-14.6-8.1-21.9
	c-0.7-1.9-1.4-3.8-2.2-5.6c-0.8-1.9-2-3-4.3-3c-7.7,0.1-15.5,0-23.2,0h-4.2c-0.7,0-1.1,0.8-0.6,1.4c0.9,1,2,2.2,2.4,2.7
	c7.6,8,14.2,16.7,20.5,25.8c6.9,9.9,12.9,20.3,17.8,31.2c3.9,8.7,7,17.8,10.3,26.8c0.8,2.3,1.3,4.7,2.1,6.9c0.2,0.7,0.4,1.1,0.8,1.8
	c0.3,0.5,1,0.7,1.5,0.4l0,0c0.3-0.1,0.4-0.4,0.4-0.7C432.5,174,432.1,168.4,431.2,162.9L431.2,162.9z"/>
</svg>
