<?xml version="1.0" encoding="utf-8"?>
<!-- Generator: Adobe Illustrator 26.4.1, SVG Export Plug-In . SVG Version: 6.00 Build 0)  -->
<svg version="1.1" id="Layer_1" xmlns="http://www.w3.org/2000/svg" xmlns:xlink="http://www.w3.org/1999/xlink" x="0px" y="0px"
	 viewBox="0 0 544 193" style="enable-background:new 0 0 544 193;" xml:space="preserve">
<style type="text/css">
	.st0{fill:#FFFFFF;}
</style>
<ellipse class="st0" cx="520.4" cy="167.1" rx="23.2" ry="23.2"/>
<path class="st0" d="M449,188.9V6.9l34.2-6v188H449z"/>
<path class="st0" d="M370.5,192.1c-13.3,0-25.2-2.8-35.5-8.5c-10.3-5.7-18.4-13.7-24.3-24c-5.9-10.3-8.8-22.2-8.8-35.8
	c0-13.7,2.8-25.9,8.5-36.6c5.9-10.7,13.9-19,24-24.8c10.3-6.1,22.4-9.1,36.3-9.1c13,0,24.5,2.8,34.4,8.5c10,5.7,17.7,13.5,23.2,23.5
	c5.7,9.8,8.5,20.7,8.5,32.8c0,4.3-0.2,8.6-0.5,12.8H335.8c0.7,10.3,4.3,18.4,10.7,24.3c6.6,5.9,14.5,8.8,23.8,8.8
	c6.9,0,12.7-1.5,17.4-4.5c4.8-3.2,8.4-7.3,10.7-12.3H433c-2.5,8.4-6.7,16-12.5,23c-5.7,6.8-12.8,12.1-21.4,16
	C390.7,190.2,381.2,192.1,370.5,192.1z M370.8,81.1c-8.4,0-15.7,2.4-22.2,7.2c-6.4,4.6-10.5,11.7-12.3,21.4h65.9
	c-0.5-8.7-3.7-15.7-9.6-20.8C386.8,83.6,379.5,81.1,370.8,81.1z"/>
<path class="st0" d="M224.8,192.1c-13.3,0-25.2-2.8-35.5-8.5c-10.3-5.7-18.4-13.7-24.3-24c-5.9-10.3-8.8-22.2-8.8-35.8
	c0-13.7,2.8-25.9,8.5-36.6c5.9-10.7,13.9-19,24-24.8c10.3-6.1,22.4-9.1,36.3-9.1c13,0,24.5,2.8,34.4,8.5c10,5.7,17.7,13.5,23.2,23.5
	c5.7,9.8,8.5,20.7,8.5,32.8c0,4.3-0.2,8.6-0.5,12.8H190.1c0.7,10.3,4.3,18.4,10.7,24.3c6.6,5.9,14.5,8.8,23.8,8.8
	c6.9,0,12.7-1.5,17.4-4.5c4.8-3.2,8.4-7.3,10.7-12.3h34.7c-2.5,8.4-6.7,16-12.5,23c-5.7,6.8-12.8,12.1-21.4,16
	C245,190.2,235.5,192.1,224.8,192.1z M225.1,81.1c-8.4,0-15.8,2.4-22.2,7.2c-6.4,4.6-10.5,11.7-12.3,21.4h65.9
	c-0.5-8.7-3.7-15.7-9.6-20.8C241.1,83.6,233.8,81.1,225.1,81.1z"/>
<path class="st0" d="M65.5,192.1c-12.5,0-23.6-3-33.4-9.1C22.4,177,14.6,168.7,9,158.2c-5.7-10.5-8.5-22.4-8.5-35.8S3.3,97.3,9,86.9
	c5.7-10.5,13.4-18.7,23.2-24.6c9.8-6.1,20.9-9.1,33.4-9.1c10,0,18.7,1.9,26.2,5.6c7.5,3.7,13.5,9,18.2,15.7V6.9l34.2-6v188h-30.4
	l-3.7-19c-4.3,5.9-10,11-17.1,15.5C85.8,189.9,76.8,192.1,65.5,192.1z M72.8,162.2c11,0,20-3.6,27-10.9c7.1-7.5,10.7-17,10.7-28.6
	c0-11.6-3.6-21-10.7-28.3c-6.9-7.5-15.9-11.2-27-11.2c-10.9,0-19.8,3.6-27,10.9c-7.1,7.3-10.7,16.7-10.7,28.3s3.6,21.1,10.7,28.6
	C52.9,158.5,61.9,162.2,72.8,162.2z"/>
</svg>
