<?xml version="1.0" encoding="utf-8"?>
<!-- Generator: $$$/GeneralStr/196=Adobe Illustrator 27.6.0, SVG Export Plug-In . SVG Version: 6.00 Build 0)  -->
<svg version="1.1" id="Capa_1" xmlns="http://www.w3.org/2000/svg" xmlns:xlink="http://www.w3.org/1999/xlink" x="0px" y="0px"
	 viewBox="0 0 600 600" style="enable-background:new 0 0 600 600;" xml:space="preserve">
<style type="text/css">
	.st0{fill:#FFFFFF;}
</style>
<g>
	<g>
		<path class="st0" d="M46.1,226.2H69v4.2H50.8v12.4h15v4.2h-15v12.2h19.3v4.2H46.1V226.2z"/>
		<path class="st0" d="M97.5,237.9v25.6h-4.3v-4.3h-0.1c-2,2.9-5.1,4.6-8.4,4.6c-5.9,0-9.6-3.4-9.6-10.7v-15.2h4.3v14
			c0,5.8,2.2,8,6.2,8c4,0,7.6-3.5,7.6-9.6v-12.4H97.5z"/>
		<path class="st0" d="M118.9,237.6v4.7c-0.6-0.1-1.3-0.1-1.7-0.1c-4.8,0-7.8,3.7-7.8,8.9v12.3h-4.3v-25.6h4.3v4.5h0.1
			c1.9-3,4.9-4.8,8.3-4.8C118.2,237.5,118.6,237.5,118.9,237.6z"/>
		<path class="st0" d="M121.7,250.7c0-7.3,5.2-13.1,13.2-13.1c7.5,0,13.1,5.4,13.1,13.1c0,7.8-5.6,13.1-13.1,13.1
			C126.9,263.7,121.7,258,121.7,250.7z M143.7,250.7c0-5.5-3.9-9.2-8.8-9.2c-5.4,0-8.9,4.1-8.9,9.2c0,5.1,3.6,9.2,8.9,9.2
			C139.8,259.9,143.7,256.1,143.7,250.7z"/>
		<path class="st0" d="M179.9,250.8c0,7.8-5.5,12.9-12.5,12.9c-3.6,0-6.7-1.5-8.7-4.1h-0.1v14.2h-4.2v-36h4.3v3.8h0.1
			c2.2-2.7,5.3-4.1,8.7-4.1C174.6,237.5,179.9,243.3,179.9,250.8z M175.6,250.8c0-5.7-3.8-9.3-8.7-9.3c-4.8,0-8.4,4.1-8.4,9.3
			c0,5.4,4,9,8.5,9C172.1,259.9,175.6,256,175.6,250.8z"/>
		<path class="st0" d="M208.6,252H189c0.6,4.8,3.9,7.9,8.6,7.9c3.2,0,5.6-1.5,7.2-3.5l3,2.6c-2.2,2.8-5.7,4.8-10.3,4.8
			c-7.2,0-12.7-5.3-12.7-13.1c0-7.7,5.3-13.1,12.2-13.1c7.1,0,11.9,5.4,11.9,12.7C208.7,250.9,208.6,251.8,208.6,252z M189.1,248.5
			h15.4c-0.7-4.2-3.4-7-7.5-7C193.1,241.5,189.9,244.1,189.1,248.5z"/>
		<path class="st0" d="M239,237.9v25.6h-4.1v-4h-0.1c-2,2.7-5.2,4.4-8.9,4.4c-7.1,0-12.5-5.1-12.5-12.9c0-7.6,5.2-13.3,12.5-13.3
			c3.5,0,6.7,1.5,8.8,4.1h0.1v-3.8H239z M234.9,250.8c0-5.2-3.6-9.3-8.6-9.3c-4.8,0-8.7,3.7-8.7,9.3c0,5.1,3.4,9,8.6,9
			C230.9,259.9,234.9,256.2,234.9,250.8z"/>
		<path class="st0" d="M269.4,248.3v15.2h-4.3v-14c0-6-2.5-8-6.2-8c-4.8,0-8,3.4-8,9.2v12.8h-4.3v-25.6h4.3v4.5h0.1
			c2.2-3,5.5-4.8,9.3-4.8C265.8,237.5,269.4,241,269.4,248.3z"/>
	</g>
	<g>
		<path class="st0" d="M23.3,283.2H28v37.3h-4.6V283.2z"/>
		<path class="st0" d="M59.4,305.3v15.2h-4.3v-14c0-6-2.5-8-6.2-8c-4.8,0-8,3.4-8,9.2v12.8h-4.3v-25.6h4.3v4.5H41
			c2.2-3,5.5-4.8,9.3-4.8C55.8,294.5,59.4,298,59.4,305.3z"/>
		<path class="st0" d="M89.7,305.3v15.2h-4.3v-14c0-6-2.5-8-6.2-8c-4.8,0-8,3.4-8,9.2v12.8h-4.3v-25.6h4.3v4.5h0.1
			c2.2-3,5.5-4.8,9.3-4.8C86,294.5,89.7,298,89.7,305.3z"/>
		<path class="st0" d="M95.6,307.7c0-7.3,5.2-13.1,13.2-13.1c7.5,0,13.1,5.4,13.1,13.1c0,7.8-5.6,13.1-13.1,13.1
			C100.9,320.7,95.6,315,95.6,307.7z M117.7,307.7c0-5.5-3.9-9.2-8.8-9.2c-5.4,0-8.9,4.1-8.9,9.2c0,5.1,3.6,9.2,8.9,9.2
			C113.8,316.9,117.7,313.1,117.7,307.7z"/>
		<path class="st0" d="M149.2,294.9l-10.4,25.6h-4.1l-10.4-25.6h4.6l7.9,20.2h0.2l7.7-20.2H149.2z"/>
		<path class="st0" d="M177,294.9v25.6h-4.1v-4h-0.1c-2,2.7-5.2,4.4-8.9,4.4c-7.1,0-12.5-5.1-12.5-12.9c0-7.6,5.2-13.3,12.5-13.3
			c3.5,0,6.7,1.5,8.8,4.1h0.1v-3.8H177z M172.9,307.8c0-5.2-3.6-9.3-8.6-9.3c-4.8,0-8.7,3.7-8.7,9.3c0,5.1,3.4,9,8.6,9
			C168.9,316.9,172.9,313.2,172.9,307.8z"/>
		<path class="st0" d="M185.4,312.8v-14.3h-3.3v-3.7h3.3v-8.7l4.3-0.5v9.2h8.5v3.7h-8.5v13.6c0,3,0.7,4.6,3.1,4.6
			c1.5,0,3.1-0.6,4.3-1.3l1.2,3.7c-1.4,0.8-3.2,1.6-6.2,1.6C187.5,320.7,185.4,318,185.4,312.8z"/>
		<path class="st0" d="M202.5,287.1c0-1.6,1.3-3,3-3c1.7,0,3,1.4,3,3c0,1.7-1.4,3-3,3C203.8,290.1,202.5,288.8,202.5,287.1z
			 M203.4,294.9h4.3v25.6h-4.3V294.9z"/>
		<path class="st0" d="M214,307.7c0-7.3,5.2-13.1,13.2-13.1c7.5,0,13.1,5.4,13.1,13.1c0,7.8-5.6,13.1-13.1,13.1
			C219.2,320.7,214,315,214,307.7z M236,307.7c0-5.5-3.9-9.2-8.8-9.2c-5.4,0-8.9,4.1-8.9,9.2c0,5.1,3.6,9.2,8.9,9.2
			C232.1,316.9,236,313.1,236,307.7z"/>
		<path class="st0" d="M269.4,305.3v15.2h-4.3v-14c0-6-2.5-8-6.2-8c-4.8,0-8,3.4-8,9.2v12.8h-4.3v-25.6h4.3v4.5h0.1
			c2.2-3,5.5-4.8,9.3-4.8C265.8,294.5,269.4,298,269.4,305.3z"/>
	</g>
	<g>
		<path class="st0" d="M96.1,358.9c0-10.6,6.6-19.2,18.6-19.2c5.1,0,10.5,2.1,14.5,7.1l-3.4,2.8c-2.8-3.6-6.8-5.6-11.1-5.6
			c-8.5,0-13.8,6.1-13.8,14.8c0,8.9,5.9,14.4,13.8,14.4c4.8,0,8.5-2.3,11.1-5.6l3.4,2.9c-3.3,4-8,7-14.5,7
			C104.6,377.7,96.1,371.1,96.1,358.9z"/>
		<path class="st0" d="M133.5,364.7c0-7.3,5.2-13.1,13.2-13.1c7.5,0,13.1,5.4,13.1,13.1c0,7.8-5.6,13.1-13.1,13.1
			C138.7,377.7,133.5,372,133.5,364.7z M155.5,364.7c0-5.5-3.9-9.2-8.8-9.2c-5.4,0-8.9,4.1-8.9,9.2c0,5.1,3.6,9.2,8.9,9.2
			C151.7,373.8,155.5,370.1,155.5,364.7z"/>
		<path class="st0" d="M188,351.9v25.6h-4.3v-4.3h-0.1c-2,2.9-5.1,4.6-8.4,4.6c-5.9,0-9.6-3.4-9.6-10.7v-15.2h4.3v14
			c0,5.8,2.2,8,6.2,8c4,0,7.6-3.5,7.6-9.6v-12.4H188z"/>
		<path class="st0" d="M218.4,362.2v15.2h-4.3v-14c0-6-2.5-8-6.2-8c-4.8,0-8,3.4-8,9.2v12.8h-4.3v-25.6h4.3v4.5h0.1
			c2.2-3,5.5-4.8,9.3-4.8C214.8,351.5,218.4,355,218.4,362.2z"/>
		<path class="st0" d="M224.3,364.7c0-7.7,5.3-13.1,12.8-13.1c3.8,0,7.8,1.6,10.3,4.6l-2.9,2.6c-1.6-1.9-4.1-3.2-7.1-3.2
			c-5.1,0-8.7,3.8-8.7,9.2c0,5.5,3.6,9.2,8.7,9.2c3,0,5.7-1.3,7.2-3l2.9,2.6c-2.2,2.4-6,4.3-10.5,4.3
			C229.7,377.7,224.3,372.4,224.3,364.7z"/>
		<path class="st0" d="M252,344.1c0-1.6,1.3-3,3-3c1.7,0,3,1.4,3,3c0,1.7-1.4,3-3,3C253.3,347.1,252,345.8,252,344.1z M252.8,351.9
			h4.3v25.6h-4.3V351.9z"/>
		<path class="st0" d="M265.2,340.2h4.3v37.3h-4.3V340.2z"/>
	</g>
	<path class="st0" d="M312.6,215.4v172.9h259.3V215.4H312.6z M489.2,270.9l2.1-6.5l2.1,6.5h6.8l-5.6,4l2.1,6.5l-5.5-4l-5.5,4
		l2.1-6.5l-5.6-4L489.2,270.9z M376.7,299.2l6.8,0l2.1-6.6l2.1,6.5h6.8l-5.6,4l2.1,6.5l-5.5-4l-5.5,4l2.1-6.5L376.7,299.2z
		 M398.7,338l-5.5-4l-5.5,4l2.1-6.5l-5.6-4l6.8,0l2.1-6.5l2.1,6.5h6.8l-5.6,4L398.7,338z M396.6,274.9l2.1,6.5l-5.5-4l-5.5,4
		l2.1-6.5l-5.6-4l6.8,0l2.1-6.6l2.1,6.5h6.8L396.6,274.9z M411.8,250.2l2.1-6.5l2.1,6.5h6.8l-5.6,4l2.1,6.5l-5.5-4l-5.5,4l2.1-6.5
		l-5.6-4L411.8,250.2z M419.4,358.8l-5.5-4l-5.5,4l2.1-6.5l-5.6-4l6.9,0l2.1-6.5l2.1,6.5h6.8l-5.6,4L419.4,358.8z M440.1,242.6
		l2.1-6.5l2.1,6.5h6.8l-5.6,4l2.1,6.5l-5.5-4l-5.5,4l2.1-6.5l-5.6-4L440.1,242.6z M447.7,366.3l-5.5-4l-5.5,4l2.1-6.5l-5.6-4l6.8,0
		l2.1-6.6l2.1,6.5h6.9l-5.6,4L447.7,366.3z M476,358.8l-5.5-4l-5.5,4l2.1-6.5l-5.5-4l6.8,0l2.1-6.5l2.1,6.5h6.8l-5.6,4L476,358.8z
		 M474,254.2l2.1,6.5l-5.5-4l-5.5,4l2.1-6.5l-5.5-4l6.9,0l2.1-6.6l2.1,6.5h6.9L474,254.2z M496.8,338l-5.5-4l-5.5,4l2.1-6.5l-5.6-4
		l6.8,0l2.1-6.5l2.1,6.5h6.8l-5.6,4L496.8,338z M504.3,309.6l-5.5-4l-5.5,4l2.1-6.5l-5.6-4l6.9,0l2.1-6.5l2.1,6.5h6.9l-5.6,4
		L504.3,309.6z"/>
</g>
</svg>
