<svg id="Layer_1" data-name="Layer 1" xmlns="http://www.w3.org/2000/svg" viewBox="0 0 2823.25 792.11"><defs><style>.cls-1{fill:#fff;}</style></defs><rect class="cls-1" x="284.24" y="185.41" width="73.6" height="76.35"/><rect class="cls-1" x="286.99" y="306.25" width="68.66" height="275.19"/><path class="cls-1" d="M401.78,581.44V306.25h67v41.2c16.48-29.12,47.24-46.14,85.69-46.14,63.17,0,104.36,45,104.36,109.3V581.44h-67V426.54c0-39.55-24.17-64.81-57.67-64.81-39.55,0-65.37,29.11-65.37,70.3V581.44Z"/><polygon class="cls-1" points="736.29 306.25 804.4 306.25 868.12 496.3 933.48 306.25 1001.04 306.25 899.43 581.44 836.26 581.44 736.29 306.25"/><path class="cls-1" d="M995.55,442.47c0-72.5,46.14-141.16,136.77-141.16,92.28,0,135.12,67.56,133.47,132.37l-.55,24.17H1060.91c4.4,43.94,34.06,70.31,77.45,70.31,33.51,0,55.48-13.19,64.27-38.45H1268c-11.53,58.77-63.17,96.12-129.63,96.12-91.18,0-142.81-70.31-142.81-143.36m67.56-29.11h136.77c-2.2-31.86-28-55.48-67.56-55.48-37.9,0-63.17,17-69.21,55.48"/><path class="cls-1" d="M1300.4,581.44V306.25H1368v41.2c14.83-29.12,47.24-46.14,86.23-46.14,62.62,0,103.27,45,103.27,109.3V581.44H1489.9V426.54c0-39.55-23.07-64.81-57.68-64.81-37.9,0-64.26,29.11-64.26,70.3V581.44Z"/><path class="cls-1" d="M1574.48,361.73V306.25h54.38l-.54-84.59h68.11l.54,84.59h76.35v55.48H1697V477.62c0,30.21,12.64,44,39,44h37.35v59.87h-55.47c-53.83,0-89-24.72-89-85.14V361.73Z"/><path class="cls-1" d="M1805.18,477.07V306.25h67.56V466.09c0,35.15,17,59.87,54.93,59.87s54.93-24.72,54.93-59.87V306.25h67.56V477.07c0,68.66-51.08,108.76-122.49,108.76s-122.49-40.1-122.49-108.76"/><path class="cls-1" d="M2095.75,581.44V306.25h68.66v48.89c14.83-35.16,34.6-48.89,70.31-48.89h33v61h-42.84c-42.3,0-60.42,26.36-60.42,82.94V581.44Z"/><path class="cls-1" d="M2267.67,442.47c0-72.5,43.94-141.16,135.67-141.16s134.57,67.56,134.57,132.37v24.17h-206c5.49,43.94,32.95,70.31,76.35,70.31,35.7,0,58.22-13.19,64.81-38.45H2539c-9.33,58.77-62.06,96.12-130.72,96.12-90.08,0-140.62-70.31-140.62-143.36M2333,413.36h137.31c-2.74-31.86-26.36-55.48-67-55.48-38.45,0-62.61,17-70.3,55.48"/><rect class="cls-1" x="696.05" y="46.99" width="16.08" height="698.13"/></svg>