<?xml version="1.0" encoding="utf-8"?>
<!-- Generator: Adobe Illustrator 27.9.0, SVG Export Plug-In . SVG Version: 6.00 Build 0)  -->
<svg version="1.1" id="Layer_1" xmlns="http://www.w3.org/2000/svg" xmlns:xlink="http://www.w3.org/1999/xlink" x="0px" y="0px"
	 viewBox="0 0 850.39 283.46" style="enable-background:new 0 0 850.39 283.46;" xml:space="preserve">
<style type="text/css">
	.st0{fill:#FFFFFF;}
	.st1{enable-background:new    ;}
</style>
<g>
	<polygon class="st0" points="515.52,145.78 501.13,145.78 504.66,132.77 519.05,132.77 	"/>
	<polygon class="st0" points="642.74,132.77 639.21,145.78 672.84,145.77 676.36,132.77 	"/>
	<path class="st0" d="M553.43,105.94h-55.45c-9.08,0-17.38,6.92-19.68,15.42l-10.28,37.91c-1.12,4.12-0.56,8,1.59,10.92
		c2.15,2.91,5.61,4.52,9.76,4.52h42.97c9.61,0,17.42-6.92,19.73-15.42l5.22-19.3c0.51-1.91,0.21-3.74-0.78-5.09
		c-0.99-1.35-2.63-2.13-4.55-2.13h-16.54l-3.53,13h9.28l-3.62,13.49c-0.15,0.58-0.75,1.05-1.33,1.05h-43.04
		c-0.35,0-0.55-0.17-0.65-0.3s-0.17-0.37-0.08-0.72l10.29-37.92c0.15-0.56,0.78-1.04,1.35-1.04h55.45L553.43,105.94z"/>
	<path class="st0" d="M706.54,137.4c-1.96-2.67-5.14-4.63-8.71-4.63h-15.1l-3.52,13c0,0,13.54,0,14.24,0c0.57,0,0.85,0.27,0.68,0.89
		s-3.41,12.51-3.41,12.51c-0.15,0.58-0.75,1.14-1.32,1.14h-54.14l-3.9,14.4h53.96c9.6,0,17.49-6.91,19.79-15.39l3.02-11.01
		C709.25,144.18,708.68,140.31,706.54,137.4"/>
	<polygon class="st0" points="597.8,145.78 576.53,145.78 580.06,132.77 601.32,132.77 	"/>
	<path class="st0" d="M618.59,105.94h-44.91c-3.99,0-8.04,3.31-9.12,7.28l-14.72,54.29c-0.52,1.91-0.25,3.75,0.75,5.09
		c0.99,1.35,2.63,2.11,4.55,2.11h44.81c15.05,0,25.01-8.73,27.85-20.81c1.21-5.12-0.03-11.3-4-13.76c6.47-2.98,8.97-8.38,10.18-13.6
		C636.66,115.03,629.71,105.94,618.59,105.94z M618.96,126.93c-0.91,3.37-3.44,5.84-7.66,5.84h-3.61l-3.53,13h3.62
		c4.59,0,6.33,3.48,5.17,7.74c-1.04,3.85-4.53,6.8-9.11,6.8h-36.63c-0.35,0-0.55-0.17-0.64-0.3c-0.1-0.13-0.17-0.37-0.08-0.72
		l10.28-37.92c0.15-0.56,0.78-1.04,1.35-1.04h36.56C617.99,120.33,619.9,123.45,618.96,126.93z"/>
	<path class="st0" d="M665.44,105.94c-9.32,0-17.38,7.2-19.6,15.39l-1.56,5.74h14.43l1.55-5.71c0.15-0.57,0.75-1.04,1.32-1.04h50.67
		l3.9-14.39h-50.71V105.94z"/>
	<path class="st0" d="M799.25,174.69c0,0-21.51-53.93-26.71-66.75c-0.97-2.38-3.6-4.11-6.81-4.11s-6,1.6-7.9,4.08l-14.58,19.15
		h19.25l18.19,47.62L799.25,174.69L799.25,174.69z"/>
	<polygon class="st0" points="763.28,145.78 758.13,132.77 720.53,132.77 717,145.78 717,145.78 	"/>
	<g>
		<polygon class="st0" points="724.96,151.12 707.01,174.69 727.59,174.69 745.41,151.12 		"/>
	</g>
</g>
<g>
	<path class="st0" d="M86.06,140.86c25.87-24.94,25.87-24.94,25.87-24.94c-3.72,0-14.51,0-17.49,0
		c-25.31,24.94-25.31,24.94-25.31,24.94c41.68,40.94,41.68,40.94,41.68,40.94c17.86,0,17.86,0,17.86,0
		C86.06,140.86,86.06,140.86,86.06,140.86z"/>
	<path class="st0" d="M153.79,115.18L153.79,115.18v8.19c11.91,0,19.17,6.51,19.17,17.49s-7.26,17.68-19.17,17.68v8l0,0
		c21.58,0,35.54-10.05,35.54-25.68C189.33,125.22,175.38,115.18,153.79,115.18L153.79,115.18z M153.79,115.18
		c-21.59,0-35.54,10.05-35.54,25.68s13.95,25.68,35.54,25.68v-8h-0.19l0,0c-11.91,0-19.17-6.7-19.17-17.68s7.26-17.49,19.17-17.49
		h0.19V115.18z"/>
	<path class="st0" d="M227.85,165.6c0,0,14.7,0,15.26,0c0-0.37,0-6.7,0-7.25c-0.56,0-5.95,0-5.95,0c-9.86,0-13.4-3.35-13.4-12.09
		c0-22.89,0-22.89,0-22.89s18.8,0,19.35,0c0-0.56,0-6.88,0-7.44c-0.56,0-19.35,0-19.35,0s0-18.61,0-19.17c-0.56,0-14.88,0-15.44,0
		c0,0.56,0,19.17,0,19.17s-12.47,0-13.03,0c0,0.56,0,6.89,0,7.44c0.56,0,13.03,0,13.03,0c0,27.35,0,27.35,0,27.35
		C208.31,160.39,215.2,165.6,227.85,165.6L227.85,165.6z"/>
	<path class="st0" d="M342.66,165.6c12.09,0,30.15,0,30.52,0c0-0.56,0-31.45,0-31.45c0-12.09-9.12-18.23-27.17-18.23
		c0,0-1.3,0-3.35,0v7.81c7.82,0.37,14.52,2.05,14.52,10.24c0,2.79,0,2.79,0,2.79c-7.26,0-11.72,0-14.52,0v7.25
		c14.33,0,14.33,0,14.33,0c0.37,0,0.37,0,0.37,0c0,14.14,0,14.14,0,14.14c-7.81,0-12.28,0-14.7,0L342.66,165.6L342.66,165.6z
		 M332.06,165.6c0,0,4.65,0,10.61,0v-7.44c-2.98,0-2.98,0-2.98,0c-5.39,0-11.54,0-11.54-6.51c0-7.07,6.51-7.63,12.84-7.63l0,0
		c0.56,0,1.12,0,1.67,0v-7.25c-4.28,0-4.28,0-4.28,0c-18.79,0-26.42,4.47-26.42,15.26C311.96,160.76,319.21,165.6,332.06,165.6
		L332.06,165.6L332.06,165.6z M342.66,115.92c-7.63,0-25.49,0-26.05,0c0,0.56,0,7.26,0,7.81c0.56,0,22.33,0,22.33,0
		c1.3,0,2.61,0,3.72,0V115.92z"/>
	<path class="st0" d="M274,115.92c-13.59,0-18.05,2.98-18.05,11.91c0,0,0,37.22,0,37.77c0.56,0,14.89,0,15.45,0
		c0-0.56,0-34.98,0-34.98c0-6.88,10.24-6.88,14.89-6.88c0,0,10.98,0,18.05,0c8.18-7.81,8.18-7.81,8.18-7.81
		C305.45,115.92,274,115.92,274,115.92L274,115.92z"/>
	<path class="st0" d="M66.34,165.6c0-0.56,0-68.29,0-68.85c-0.56,0-14.89,0-15.26,0c0,0.56,0,68.29,0,68.85
		C51.45,165.6,65.77,165.6,66.34,165.6L66.34,165.6z"/>
</g>
<g class="st1">
	<path class="st0" d="M422.82,174.71v-68h13.03v68H422.82z"/>
</g>
</svg>
