<?xml version="1.0" encoding="utf-8"?>
<!-- Generator: Adobe Illustrator 25.2.0, SVG Export Plug-In . SVG Version: 6.00 Build 0)  -->
<svg version="1.1" id="Layer_1" xmlns="http://www.w3.org/2000/svg" xmlns:xlink="http://www.w3.org/1999/xlink" x="0px" y="0px"
	 viewBox="0 0 1200.2 156.8" style="enable-background:new 0 0 1200.2 156.8;" xml:space="preserve">
<style type="text/css">
	.st0{fill:#FFFFFF;}
	.st1{fill-rule:evenodd;clip-rule:evenodd;fill:#FFFFFF;}
</style>
<path class="st0" d="M217.6,62.6v-21l-28.8,2.3v110.7h28.8V94.5c0-10.6,3.9-19.4,10.8-25.6c6.9-6.2,16.8-9.8,29.1-9.8
	c8.3,0,14.9,2.8,19.4,7.7c4.5,4.9,7.1,12.1,7.1,20.9v66.9h28.8V80.1c0-11.8-4.2-21.6-12.2-28.3c-8.1-6.7-19.7-10.1-33.8-10.1
	c-10.6,0-20.8,2.1-29.7,6.1C229.2,51.4,222.5,56.5,217.6,62.6z"/>
<path class="st1" d="M473.2,154.5V0l-28.8,2.3v56.6c-12.2-11.1-28.1-17.2-45.2-17.2c-17.2,0-31.9,5.1-42.3,15
	c-10.6,10-16.1,24.3-16.1,41.2c0,17.7,5.7,32.5,16.1,42.8c10.3,10.3,25.1,16.1,42.8,16.1c19,0,36.1-6.9,47.2-19.2v17L473.2,154.5
	L473.2,154.5z M381.1,69.3c6.3-7.3,15.1-11.8,25.4-11.8c11,0,20.5,4.5,27.3,11.8c6.8,7.3,11,17.6,11,29.7c0,12.5-4,22.9-10.7,30.3
	c-6.7,7.3-16.2,11.6-27.5,11.6c-10.5,0-19.4-4.3-25.7-11.7c-6.3-7.4-10.1-18-10.1-30.7C370.9,86.7,374.9,76.6,381.1,69.3z"/>
<path class="st1" d="M721.5,41.7c-17.9,0-37.9,2.4-57,6.4l-1.8,0.4l4.8,12.3l1.2-0.2c17.5-2.3,33.3-3.1,48.1-3.1
	c11.7,0,19.6,1.3,24.5,3.9c2.4,1.3,4.1,2.9,5.1,4.7c1.1,1.9,1.6,4.2,1.6,6.9v8c0,0-37.4,2.2-49.8,3.1c-13.3,1.3-24.2,5.3-31.7,11.7
	c-7.6,6.4-11.7,15.2-11.7,25.6c0,11.5,4.6,20.5,13.6,26.6c8.5,5.8,20.9,8.7,35.6,8.7c14.2,0,32.1-3.5,46.3-20.1v17.9h26.4V71.8
	c0-5.4-1-10-3.2-13.8c-2.2-3.9-5.6-7-10.1-9.3C754.7,43.9,740.8,41.7,721.5,41.7z M748.1,115.8V93.9c0,0-30.6,2-40.7,2.8
	c-7.1,0.7-12.8,3.2-16.6,7.1c-3.8,3.9-6,9.2-6,15.7s2.6,11.4,7.6,14.7c4.8,3.1,11.8,4.8,20.9,4.8c11.2,0,18.5-3.1,25-7.6
	C744.6,126.9,748.1,121.1,748.1,115.8z"/>
<path class="st0" d="M828.8,43.9h-33.2l57.6,110.7h22.4l58.8-110.7h-19.3l-43.8,82.5L828.8,43.9z"/>
<path class="st1" d="M1010.7,41.7c-19.9,0-37.2,5.1-49.7,14.9c-13.1,10.3-20,25.1-20,42.6s6.9,32.2,20,42.5
	c12.6,9.9,29.8,15.1,49.7,15.1c19.8,0,37-5.2,49.4-15.1c13-10.3,19.8-25.1,19.8-42.5c0-17.5-6.9-32.3-19.8-42.6
	C1047.6,46.8,1030.5,41.7,1010.7,41.7z M982.4,68.7c7-7.5,16.7-12.6,28.1-12.6c22.9,0,39,17.7,39,42.7c0.1,12.6-4.2,23.1-11.1,30.6
	c-6.9,7.6-16.6,12.8-27.9,12.8c-11.4,0-21.1-5.2-28.1-12.8c-7-7.6-11.3-18.1-11.3-30.6C971.1,86.5,975.5,76.1,982.4,68.7z"/>
<path class="st0" d="M1135.5,68V41.6l-28.8,2.3v110.7h28.8v-46.5c0-12.7,3.8-23.5,10.9-31.1c7.4-8,12.5-12.5,21.7-15.3
	c7-2.1,12.1-2.2,18-2.2c1.4,0,2.9,0,4.5,0h0.9l8.7-16.7l-2.1-0.3c-3.4-0.5-10.1-0.8-15.1-0.8C1163.6,41.7,1145.7,51.7,1135.5,68z"/>
<path class="st1" d="M33.3,88.7c5.2-27.6,33.3-47,63.1-47c45,0,61.2,32.4,61.2,49.9c0,3.6-0.7,6.4-2.7,8.3c-2,1.9-4.8,2.5-8.2,2.5
	H60.9c1.5,12.6,7.2,22.2,15.4,28.7c8.6,6.9,20.1,10.4,32.5,10.4c15.1,0,28.5-3.4,42-9l1.4-0.6l5.1,12.3l-1.4,0.6
	c-19.8,8.9-37.6,11.9-57.9,11.9c-17.3,0-33.7-4.9-45.8-14.7c-11.2-9.1-18.6-22.4-19.7-39.7H0l7.3-13.6H33.3z M61,88.7h55.4
	c5.5,0,8.9-0.8,10.9-2c1.8-1.1,2.6-2.8,2.6-5c0-11.8-12.6-26.1-33.4-26.1C85.4,55.6,77,59.8,71,66.3C65.6,72.3,62.2,80.4,61,88.7z"
	/>
<path class="st1" d="M567.4,41.7c-33.1,0-63.9,23.9-63.9,56.3c0,19.5,7.7,34.3,19.8,44.1c12.1,9.8,28.5,14.7,45.8,14.7
	c20.3,0,38.1-3.1,57.9-11.9l1.4-0.6l-5.1-12.3l-1.4,0.6c-13.5,5.6-26.9,9-42,9c-12.4,0-23.8-3.6-32.5-10.4
	c-8.2-6.5-14-16.1-15.4-28.7h85.7c3.4,0,6.3-0.6,8.2-2.5c2-1.9,2.7-4.7,2.7-8.3C628.7,74.1,612.4,41.7,567.4,41.7z M587.5,88.7
	h-55.4c1.2-8.4,4.5-16.4,10.1-22.4c5.9-6.4,14.4-10.7,25.5-10.7c20.7,0,33.4,14.3,33.4,26.1c0,2.2-0.7,3.9-2.6,5
	C596.5,88,593.1,88.8,587.5,88.7z"/>
</svg>
