<?xml version="1.0" encoding="utf-8"?>
<!-- Generator: Adobe Illustrator 24.1.3, SVG Export Plug-In . SVG Version: 6.00 Build 0)  -->
<svg version="1.1" xmlns="http://www.w3.org/2000/svg" xmlns:xlink="http://www.w3.org/1999/xlink" x="0px" y="0px"
	 viewBox="0 0 686.3 232.1" style="enable-background:new 0 0 686.3 232.1;" xml:space="preserve">
<style type="text/css">
	.st0{fill:url(#SVGID_1_);}
	.st1{fill:url(#SVGID_2_);}
	.st2{fill:#FFFFFF;}
	.st3{fill:url(#SVGID_3_);}
	.st4{fill:url(#SVGID_4_);}
	.st5{fill:url(#SVGID_5_);}
	.st6{fill:url(#SVGID_6_);}
	.st7{fill:url(#SVGID_7_);}
	.st8{fill:url(#SVGID_8_);}
	.st9{fill:url(#SVGID_9_);}
	.st10{fill:url(#SVGID_10_);}
	.st11{fill:#E2DDDC;}
	.st12{opacity:0.92;fill:#FFFFFF;}
	.st13{opacity:0.85;fill:#FFFFFF;}
	.st14{opacity:0.84;fill:#FFFFFF;}
	.st15{opacity:0.91;fill:#FFFFFF;}
	.st16{opacity:0.8;fill:#FFFFFF;}
	.st17{opacity:0.68;fill:#FFFFFF;}
	.st18{opacity:0.5;fill:#FFFFFF;}
	.st19{opacity:0.58;fill:#FFFFFF;}
	.st20{opacity:0.75;fill:#FFFFFF;}
</style>
<g id="Layer_1">
</g>
<g id="레이어_2">
	<linearGradient id="SVGID_1_" gradientUnits="userSpaceOnUse" x1="30.0625" y1="130.1787" x2="131.1382" y2="97.3372">
		<stop  offset="0" style="stop-color:#FDC300"/>
		<stop  offset="1" style="stop-color:#FDC300;stop-opacity:0.6"/>
	</linearGradient>
	<polygon class="st0" points="34.5,115.2 34.5,115.2 34.5,115.2 94.2,122.9 94.2,122.9 	"/>
	<linearGradient id="SVGID_2_" gradientUnits="userSpaceOnUse" x1="84.7183" y1="134.9698" x2="41.185" y2="100.9578">
		<stop  offset="0" style="stop-color:#EE7BAE"/>
		<stop  offset="1" style="stop-color:#EE7BAE;stop-opacity:0.4"/>
	</linearGradient>
	<polygon class="st1" points="34.5,115.2 34.5,115.2 34.5,115.2 94.2,122.9 94.2,122.9 	"/>
	<polygon class="st2" points="94.2,122.9 94.2,122.9 94.2,122.9 	"/>
	<linearGradient id="SVGID_3_" gradientUnits="userSpaceOnUse" x1="94.1555" y1="122.8904" x2="94.1555" y2="122.8904">
		<stop  offset="0" style="stop-color:#FDC300"/>
		<stop  offset="1" style="stop-color:#FDC300;stop-opacity:0.6"/>
	</linearGradient>
	<polygon class="st3" points="94.2,122.9 94.2,122.9 94.2,122.9 	"/>
	<linearGradient id="SVGID_4_" gradientUnits="userSpaceOnUse" x1="94.1555" y1="122.8904" x2="94.1555" y2="122.8904">
		<stop  offset="0" style="stop-color:#EE7BAE"/>
		<stop  offset="1" style="stop-color:#EE7BAE;stop-opacity:0.4"/>
	</linearGradient>
	<polygon class="st4" points="94.2,122.9 94.2,122.9 94.2,122.9 	"/>
	<linearGradient id="SVGID_5_" gradientUnits="userSpaceOnUse" x1="92.7473" y1="123.348" x2="95.563" y2="122.4331">
		<stop  offset="0" style="stop-color:#FDC300"/>
		<stop  offset="1" style="stop-color:#FDC300;stop-opacity:0.6"/>
	</linearGradient>
	<polygon class="st5" points="94.2,122.9 94.2,122.9 94.2,122.9 	"/>
	<linearGradient id="SVGID_6_" gradientUnits="userSpaceOnUse" x1="92.3226" y1="121.5095" x2="95.9875" y2="124.2712">
		<stop  offset="0" style="stop-color:#95C11E"/>
		<stop  offset="1" style="stop-color:#95C11E;stop-opacity:0.5"/>
	</linearGradient>
	<polygon class="st6" points="94.2,122.9 94.2,122.9 94.2,122.9 	"/>
	<linearGradient id="SVGID_7_" gradientUnits="userSpaceOnUse" x1="94.1555" y1="122.8906" x2="90.5454" y2="120.0702">
		<stop  offset="0" style="stop-color:#EE7BAE"/>
		<stop  offset="1" style="stop-color:#EE7BAE;stop-opacity:0.4"/>
	</linearGradient>
	<polygon class="st7" points="94.2,122.9 94.2,122.9 94.2,122.9 	"/>
	<linearGradient id="SVGID_8_" gradientUnits="userSpaceOnUse" x1="93.272" y1="123.1776" x2="95.0386" y2="122.6035">
		<stop  offset="0" style="stop-color:#FDC300"/>
		<stop  offset="1" style="stop-color:#FDC300;stop-opacity:0.6"/>
	</linearGradient>
	<polygon class="st8" points="94.2,122.9 94.2,122.9 94.2,122.9 	"/>
	<linearGradient id="SVGID_9_" gradientUnits="userSpaceOnUse" x1="93.0631" y1="122.0673" x2="95.2476" y2="123.7134">
		<stop  offset="0" style="stop-color:#95C11E"/>
		<stop  offset="1" style="stop-color:#95C11E;stop-opacity:0.5"/>
	</linearGradient>
	<polygon class="st9" points="94.2,122.9 94.2,122.9 94.2,122.9 	"/>
	<linearGradient id="SVGID_10_" gradientUnits="userSpaceOnUse" x1="94.1556" y1="122.8906" x2="91.9952" y2="121.2027">
		<stop  offset="0" style="stop-color:#EE7BAE"/>
		<stop  offset="1" style="stop-color:#EE7BAE;stop-opacity:0.4"/>
	</linearGradient>
	<polygon class="st10" points="94.2,122.9 94.2,122.9 94.2,122.9 	"/>
	<polygon class="st11" points="94.2,122.9 94.2,122.9 94.2,122.9 	"/>
	<g>
		<polygon id="XMLID_49_" class="st2" points="212.9,122.9 142.2,122.9 140.7,135 169.4,135 169.4,209.3 176.8,227.5 184.2,227.5 
			184.2,135 211.4,135 		"/>
		<g id="XMLID_47_">
			<polygon id="XMLID_48_" class="st2" points="315.3,215.5 315.3,179 352.7,179 354.2,167.1 315.3,167.1 315.3,135 360,135 
				361.5,122.9 300.5,122.9 300.5,209.3 307.9,227.5 361.5,227.5 363,215.5 			"/>
		</g>
		<g id="XMLID_45_">
			<polygon id="XMLID_46_" class="st2" points="239.8,215.5 239.8,179 277.2,179 278.7,167.1 239.8,167.1 239.8,135 284.5,135 
				286,122.9 225,122.9 225,209.3 232.4,227.5 286,227.5 287.5,215.5 			"/>
		</g>
		<polygon id="XMLID_44_" class="st2" points="399.4,220.9 399.4,122.9 392.3,122.9 392.3,227.5 445.9,227.5 446.7,220.9 		"/>
		<path id="XMLID_40_" class="st2" d="M591.4,173.7c6.6-4.1,11.1-12,11.1-20.5V148c0-13.9-11.2-25.1-25.1-25.1h-36v104.6h44.9
			c11.7-2.4,20.4-12.8,20.4-25.2V197C606.7,186.7,600.3,177.6,591.4,173.7z M548.4,129.6h27.1l0,0c11,0,19.9,8.9,19.9,19.9v1.9
			c0,11-8.9,19.9-19.9,19.9h-27.1V129.6z M599.7,200.4c0,11.3-9.2,20.5-20.5,20.5h-30.7v-43h30.7c11.3,0,20.5,9.2,20.5,20.5V200.4z"
			/>
		<path id="XMLID_37_" class="st2" d="M468.2,196H515l13,31.6h7.6l-44-107l-44,107h7.6L468.2,196z M491.6,139.1l20.7,50.3h-41.3
			L491.6,139.1z"/>
		<path id="XMLID_36_" class="st2" d="M663.2,175.4l-25.3-7.3c-8.8-2.8-14.4-10.6-14.4-19.6c0-10.8,9.2-20.3,20.2-20.3h7.5
			c12.8,0,21.6,8.4,24.3,19.4h7.1c-2.4-14.8-14.2-26.1-30.6-26.1h-8.7c-14.8,0-26.7,12.4-26.7,26.8c0,12.1,7.8,22.7,19.6,26.1
			l24.8,7.2c8.4,2.3,14.5,9.9,14.5,20c0,11-9.3,20.7-20.4,20.7h-7.1c-12.9,0-24.7-8.9-25.3-21.1h-7.1c0.3,15.6,15.1,27.7,31.6,27.7
			h8.5c14.8,0,26.8-12.6,26.8-27.2C682.5,187.7,674.3,178.4,663.2,175.4z"/>
	</g>
	<polygon class="st2" points="4.9,60.7 34.5,115.2 50.8,92.7 	"/>
	<polygon class="st12" points="42.1,6.2 4.9,60.7 59,44.3 	"/>
	<polygon class="st13" points="69.3,67.3 59,44.3 4.9,60.7 4.9,60.7 4.9,60.7 50.8,92.7 	"/>
	<polygon class="st14" points="42.1,6.2 93.7,33.8 118.5,5.3 42.1,6.2 	"/>
	<polygon class="st2" points="93.7,33.8 42.1,6.2 42.1,6.2 59,44.3 	"/>
	<polygon class="st15" points="69.3,67.3 93.7,33.8 59,44.3 	"/>
	<polygon class="st16" points="34.5,115.2 34.5,115.2 94.2,122.9 50.8,92.7 	"/>
	<polygon class="st17" points="69.3,67.3 69.3,67.3 50.8,92.7 94.2,122.9 94.2,122.9 69.3,67.3 	"/>
	<polygon class="st18" points="128,77 128,77 118.5,5.3 93.7,33.8 	"/>
	<polygon class="st19" points="94.2,122.9 94.2,122.9 128,77 93.7,33.8 	"/>
	<polygon class="st20" points="94.2,122.9 93.7,33.8 69.3,67.3 	"/>
</g>
</svg>
