<?xml version="1.0" encoding="utf-8"?>
<!-- Generator: Adobe Illustrator 27.1.1, SVG Export Plug-In . SVG Version: 6.00 Build 0)  -->
<svg version="1.1" id="Layer_1" xmlns="http://www.w3.org/2000/svg" xmlns:xlink="http://www.w3.org/1999/xlink" x="0px" y="0px"
	 viewBox="0 0 1501.2 247.2" style="enable-background:new 0 0 1501.2 247.2;" xml:space="preserve">
<style type="text/css">
	.st0{fill:#FFFFFF;}
</style>
<g>
	<g>
		<polygon class="st0" points="349.3,242.1 229.2,4.5 332.1,4.5 411.9,170.2 487,4.5 581.2,4.5 469.8,242.1 		"/>
		<rect x="591" y="4.5" class="st0" width="90.4" height="237.6"/>
		<path class="st0" d="M697.1,162.2v-3.2h99.7c1,12.8,7.7,33.5,59.4,33.5h2.9c50.8,0,58.1-10.9,58.1-22.4v-0.3
			c0-11.8-5.8-20.1-55.9-21.4l-44.1-1.3c-92-2.9-116.6-34.5-116.6-71.6v-2.9c0-38.7,26.2-72.5,136.7-72.5h28.4
			c117.5,0,144.4,37.4,144.4,75.1v2.6h-98.7c-1-8.6-6.1-25.2-57.5-25.2h-3.2c-47.6,0-52.4,8.3-52.4,17.6v0.3c0,9.6,7,17.6,51.7,18.2
			l42.8,1c90.4,2.2,125.5,24,125.5,71.6v4.5c0,40.2-22.4,80.8-147.2,80.8h-29.1C710.9,246.6,697.1,193.2,697.1,162.2z"/>
		<rect x="1034.2" y="4.5" class="st0" width="90.4" height="237.6"/>
		<path class="st0" d="M1328.1,0c153.3,0,173.1,72.8,173.1,117.9v9.6c0,44.4-19.5,119.1-173.1,119.1h-14.4
			c-153.9,0-173.4-74.7-173.4-119.1v-9.6c0-45,19.5-117.9,173.4-117.9H1328.1z M1320.8,63.9c-71.6,0-86.6,31-86.6,56.2v3.8
			c0,24.9,16.3,58.4,86.6,58.4s86.6-32.6,86.6-57.8v-4.5C1407.3,94.9,1391.4,63.9,1320.8,63.9z"/>
	</g>
	<path class="st0" d="M123.3,0.5C55.2,0.5,0,55.8,0,123.9s55.2,123.3,123.3,123.3S246.6,192,246.6,123.9S191.4,0.5,123.3,0.5z
		 M124.1,173.5h-14.9c-5.1,0-5.5-5-4.2-7c4.4-7,7-22.5,7-27.8c0-5.2-0.8-11.9-7.2-11.9c-5.2,0-22.3,0-24.6,0
		c-6.6,0.4-8.3,6.8-8.4,9.3c-0.7,5.3-0.7,15.6,5.5,29.5c1.8,4.2,4,7.9-1.1,7.9H59.9c-8.4,0-8.2-19.1-6-26.9
		c6.4-23.9,13.4-23.6,16-47.2c0.4-3.3,0-10.3-3.9-18.2c-1.3-2.6-1.8-7.6,2.2-7.6h15c0.6,0,5.1-0.2,3.3,5.1c-2,5.6-6.6,16.9-4.4,23.6
		c0.7,2.6,3.1,5.7,8.7,5.4h15.7c2.8-0.2,5.9-0.3,7.5-5.4c0.7-2.6-1.7-13.1-5.9-23.6c-1.1-2.6-1.1-5.2,2.4-5.2h14.2
		c4.6,0,3.7,7.9,3.7,13.1c0,10.9-4,54-1.3,70.9C129,169.8,131.8,173.5,124.1,173.5z M179.5,169.1c-6,3.3-11.7,4.4-17.7,4.4h-18.4
		c-4.2,0-6.6-1.8-6.9-4.4c-0.7-5.9-0.2-9.2,0.6-13.9c0.5-2.8,1.3-4.4,6.4-2.4c7.9,3.2,13.5,5.7,20.6,7.3c4.7,1.1,12.6,0.7,16-6.2
		c3.3-6.6,1.3-13.1-5.1-16.4c-16.2-8.2-23.9-12.8-29-18c-5.3-5.1-7.6-9.8-6.9-21.3c0.4-5.9,7.8-24.7,28.2-24.7h19.1
		c2.7-0.1,5.3,1.5,5.3,4.6c0,5.1,0,6.1-0.6,9.9c-0.5,3.5-2,4-7.5,2.2c-5.8-2-21.4-13.1-29.3-4.6c-2.2,2.3-2.5,7.8,0.4,11.7
		c5.2,7,17.2,11.3,22,14.3c8.9,5.4,9.8,6.2,12.8,10.4C196.9,132.5,196.1,159.6,179.5,169.1z"/>
</g>
</svg>
